<?xml version="1.0" encoding="utf-8"?>
<!-- Generator: Adobe Illustrator 19.0.0, SVG Export Plug-In . SVG Version: 6.00 Build 0)  -->
<svg version="1.1" id="圖層_1" xmlns="http://www.w3.org/2000/svg" xmlns:xlink="http://www.w3.org/1999/xlink" x="0px" y="0px"
	 viewBox="-269 519 100 100" style="enable-background:new -269 519 100 100;" xml:space="preserve">
<g>
	<path d="M-104.8,543.9c0,12.8-10.4,26.4-23.2,26.4s-23.2-13.6-23.2-26.4c0-12.8,10.4-23.2,23.2-23.2S-104.8,531.1-104.8,543.9z"/>
	<path d="M-86.1,614.5c0-23.2-1.3-41.9-41.9-41.9s-41.9,18.8-41.9,41.9c0,0.6,0,1.2,0,1.8h83.7C-86.1,615.7-86.1,615.1-86.1,614.5z"
		/>
	<path d="M-120.7,580.4c0,1.8-1.5,3.2-3.2,3.2h-6.5c-1.8,0-3.2-1.5-3.2-3.2v-14.1c0-1.8,1.5-3.2,3.2-3.2h6.5c1.8,0,3.2,1.5,3.2,3.2
		V580.4z"/>
</g>
</svg>
