<?xml version="1.0" encoding="utf-8"?>
<!-- Generator: Adobe Illustrator 19.0.0, SVG Export Plug-In . SVG Version: 6.00 Build 0)  -->
<svg version="1.1" id="圖層_1" xmlns="http://www.w3.org/2000/svg" xmlns:xlink="http://www.w3.org/1999/xlink" x="0px" y="0px"
	 viewBox="-349 251 100 100" style="enable-background:new -349 251 100 100;" xml:space="preserve">
<style type="text/css">
	.st0{display:none;}
	.st1{fill:#FFFFFF;}
</style>
<g id="圖層_1_1_" class="st0">
	
		<image style="display:inline;overflow:visible;enable-background:new    ;" width="1921" height="1200" xlink:href="654E3B63.jpg"  transform="matrix(0.9996 0 0 0.9996 -680.3079 140.2252)">
	</image>
</g>
<g id="圖層_2">
	<polygon points="-315.8,274.6 -334.7,274.6 -334.7,268.7 -317.7,268.7 	"/>
	<polygon points="-265.6,322.7 -312.1,322.7 -320.1,283.7 -257.7,283.7 	"/>
	<g>
		<path d="M-296.2,335.7c0,4-3.3,7.3-7.3,7.3s-7.3-3.3-7.3-7.3c0-4,3.3-7.3,7.3-7.3C-299.4,328.4-296.2,331.7-296.2,335.7z"/>
		<path d="M-267,335.7c0,4-3.3,7.3-7.3,7.3c-4,0-7.3-3.3-7.3-7.3c0-4,3.3-7.3,7.3-7.3C-270.2,328.4-267,331.7-267,335.7z"/>
	</g>
	<polygon points="-312.7,286.3 -319.3,286.3 -324.3,268.7 -317.7,268.7 	"/>
	<rect x="-305.3" y="289.7" class="st1" width="48.7" height="3.3"/>
</g>
</svg>
