<?xml version="1.0" encoding="utf-8"?>
<!-- Generator: Adobe Illustrator 19.0.0, SVG Export Plug-In . SVG Version: 6.00 Build 0)  -->
<svg version="1.1" id="圖層_1" xmlns="http://www.w3.org/2000/svg" xmlns:xlink="http://www.w3.org/1999/xlink" x="0px" y="0px"
	 viewBox="-349 251 100 100" style="enable-background:new -349 251 100 100;" xml:space="preserve">
<style type="text/css">
	.st0{display:none;}
	.st1{fill:#C2C2C2;}
</style>
<g id="圖層_1_1_" class="st0">
	
		<image style="display:inline;overflow:visible;enable-background:new    ;" width="1921" height="1200" xlink:href="654E3B63.jpg"  transform="matrix(0.9996 0 0 0.9996 -1029.3079 391.2252)">
	</image>
</g>
<g>
	<g>
		<path class="st1" d="M-251.4,270.2c0,4.1-3,7.6-6.5,7.6H-340c-3.5,0-6.5-3.4-6.5-7.6v-5.3c0-4.1,3-7.6,6.5-7.6h82.1
			c3.5,0,6.5,3.4,6.5,7.6V270.2z"/>
	</g>
	<g>
		<path class="st1" d="M-251.4,303.7c0,4.1-3,7.6-6.5,7.6H-340c-3.5,0-6.5-3.4-6.5-7.6v-5.3c0-4.1,3-7.6,6.5-7.6h82.1
			c3.5,0,6.5,3.4,6.5,7.6V303.7z"/>
	</g>
	<g>
		<path class="st1" d="M-251.4,337.1c0,4.1-3,7.6-6.5,7.6H-340c-3.5,0-6.5-3.4-6.5-7.6v-5.3c0-4.1,3-7.6,6.5-7.6h82.1
			c3.5,0,6.5,3.4,6.5,7.6V337.1z"/>
	</g>
</g>
</svg>
