<?xml version="1.0" encoding="utf-8"?>
<!-- Generator: Adobe Illustrator 15.0.0, SVG Export Plug-In . SVG Version: 6.00 Build 0)  -->
<!DOCTYPE svg PUBLIC "-//W3C//DTD SVG 1.1//EN" "http://www.w3.org/Graphics/SVG/1.1/DTD/svg11.dtd">
<svg version="1.1" id="圖層_1" xmlns="http://www.w3.org/2000/svg" xmlns:xlink="http://www.w3.org/1999/xlink" x="0px" y="0px"
	 width="283px" height="47px" viewBox="0 0 283 47" enable-background="new 0 0 283 47" xml:space="preserve">
<g>
	<polygon points="34.684,46.229 7.428,12.887 7.428,46.229 0.295,46.229 0.295,0.783 6.287,0.783 33.541,34.295 33.541,0.783 
		40.68,0.783 40.68,46.229 	"/>
	<polygon points="118.947,21.032 139.143,0.784 129.838,0.784 104,26.667 104,0.784 96.969,0.784 96.969,46.229 104,46.229 
		104,36.359 104,36.021 113.793,26.2 113.93,26.066 130.664,46.229 139.494,46.229 	"/>
	<path d="M82.914,0.774v7.471c-3.057-4.516-9.063-7.827-15.615-7.827c-12.375,0-22.064,10.144-22.064,23.083
		c0,12.94,9.689,23.082,22.064,23.082c6.553,0,12.559-3.313,15.615-7.826v7.474h7.033V23.5V0.774H82.914z M67.607,39.775
		c-8.613,0-15.361-7.151-15.361-16.274c0-9.124,6.748-16.273,15.361-16.273c8.799,0,15.434,6.997,15.434,16.273
		C83.041,32.775,76.406,39.775,67.607,39.775"/>
	<polygon points="177.898,46.229 150.646,12.893 150.646,46.229 143.512,46.229 143.512,0.783 149.5,0.783 176.758,34.295 
		176.758,0.783 183.895,0.783 183.895,46.229 	"/>
	<polygon points="262.164,21.036 282.354,0.784 273.049,0.784 247.217,26.667 247.217,0.784 240.182,0.784 240.182,46.229 
		247.217,46.229 247.217,36.027 257.008,26.208 257.148,26.066 273.879,46.229 282.705,46.229 	"/>
	<path d="M226.127,0.774v7.471c-3.057-4.516-9.064-7.827-15.615-7.827c-12.373,0-22.063,10.144-22.063,23.083
		c0,12.944,9.69,23.082,22.063,23.082c6.551,0,12.56-3.306,15.615-7.826v7.472h7.035V23.5V0.774H226.127z M210.818,39.777
		c-8.611,0-15.357-7.153-15.357-16.276c0-9.124,6.746-16.273,15.357-16.273c8.807,0,15.438,6.999,15.438,16.273
		C226.258,32.775,219.625,39.777,210.818,39.777"/>
</g>
</svg>
