<?xml version="1.0" encoding="utf-8"?>
<!-- Generator: Adobe Illustrator 24.2.1, SVG Export Plug-In . SVG Version: 6.00 Build 0)  -->
<svg version="1.1" id="圖層_1" xmlns="http://www.w3.org/2000/svg" xmlns:xlink="http://www.w3.org/1999/xlink" x="0px" y="0px"
	 viewBox="0 0 140 99" style="enable-background:new 0 0 140 99;" xml:space="preserve">
<style type="text/css">
	.st0{fill:#060412;}
	.st1{fill:#FFFFFF;}
</style>
<g>
	<g>
		<path class="st0" d="M12.1,60.5l-2.9-8c-1-2.7-1.9-5.4-2.7-8.1l0,0c0.2,2.5,0.2,5.4,0.2,8.5v7.6H0.2V38.9h10l2.9,8
			c1,2.7,1.9,5.4,2.7,8.1h0.1c-0.2-2.5-0.2-5.4-0.2-8.5v-7.6h6.5v21.6H12.1L12.1,60.5z"/>
	</g>
	<g>
		<polyline class="st1" points="39.7,38.9 31.1,38.9 31.1,38.9 39.7,38.9 39.7,38.9 		"/>
		<path class="st0" d="M46.8,60.5h-7.2l-0.8-3.2h-6.7l-0.9,3.2H24l7.1-21.6h8.6L46.8,60.5L46.8,60.5 M35.4,43.9
			c-0.5,2.4-1,4.7-1.6,6.7l-0.4,1.5h4L37,50.6C36.5,48.5,35.9,46.3,35.4,43.9L35.4,43.9"/>
	</g>
	<polygon class="st0" points="69.1,60.5 60.7,60.5 55.6,51.1 55.5,51.1 55.5,60.5 48.7,60.5 48.7,38.9 55.5,38.9 55.5,47.8 
		55.6,47.8 60.5,38.9 68.8,38.9 61.7,49.1 	"/>
	<path class="st0" d="M83.2,60.5l-2.9-8c-1-2.7-1.9-5.4-2.7-8.1h-0.1c0.2,2.5,0.2,5.4,0.2,8.5v7.6h-6.5V38.9h10l2.9,8
		c1,2.7,1.9,5.4,2.7,8.1h0.1c-0.2-2.5-0.2-5.4-0.2-8.5v-7.6h6.5v21.6H83.2L83.2,60.5z"/>
	<g>
		<polyline class="st1" points="110.8,38.9 102.2,38.9 102.2,38.9 110.8,38.9 110.8,38.9 		"/>
		<path class="st0" d="M117.9,60.5h-7.2l-0.8-3.2h-6.7l-0.8,3.2h-7.2l0,0l7.1-21.6h8.6L117.9,60.5 M106.4,43.9
			c-0.5,2.4-1,4.7-1.6,6.7l-0.4,1.5h4l-0.4-1.5C107.5,48.5,107,46.3,106.4,43.9L106.4,43.9"/>
	</g>
	<g>
		<polygon class="st0" points="140.2,60.5 131.7,60.5 126.7,51.1 126.6,51.1 126.6,60.5 119.8,60.5 119.8,38.9 126.6,38.9 
			126.6,47.8 126.7,47.8 131.5,38.9 139.9,38.9 132.8,49.1 		"/>
	</g>
</g>
</svg>
