<?xml version="1.0" encoding="utf-8"?>
<!-- Generator: Adobe Illustrator 14.0.0, SVG Export Plug-In . SVG Version: 6.00 Build 43363)  -->
<!DOCTYPE svg PUBLIC "-//W3C//DTD SVG 1.1//EN" "http://www.w3.org/Graphics/SVG/1.1/DTD/svg11.dtd">
<svg version="1.1" id="圖層_1" xmlns="http://www.w3.org/2000/svg" xmlns:xlink="http://www.w3.org/1999/xlink" x="0px" y="0px"
	 width="140px" height="99px" viewBox="0 0 140 99" enable-background="new 0 0 140 99" xml:space="preserve">
<g>
	<polygon fill="#010101" points="34.795,45.948 7.542,12.611 7.542,45.948 0.405,45.948 0.405,0.499 6.395,0.499 33.65,34.016 
		33.65,0.499 40.79,0.499 40.79,45.948 	"/>
	<polygon fill="#010101" points="119.056,20.751 139.247,0.5 129.945,0.5 104.109,26.385 104.109,0.5 97.076,0.5 97.076,45.949 
		104.109,45.949 104.109,36.081 104.109,35.741 113.899,25.919 114.036,25.785 130.768,45.949 139.595,45.949 	"/>
	<path fill="#010101" d="M83.022,0.494v7.474c-3.054-4.518-9.062-7.827-15.611-7.827c-12.374,0-22.063,10.136-22.063,23.076
		c0,12.945,9.689,23.084,22.063,23.084c6.549,0,12.557-3.309,15.611-7.831v7.477h7.034V23.218V0.494H83.022z M67.716,39.493
		c-8.613,0-15.361-7.151-15.361-16.275c0-9.119,6.748-16.269,15.361-16.269c8.803,0,15.437,6.994,15.437,16.269
		C83.153,32.499,76.52,39.493,67.716,39.493"/>
	<polygon fill="#010101" points="34.795,98.502 7.542,65.165 7.542,98.502 0.405,98.502 0.405,53.058 6.395,53.058 33.65,86.574 
		33.65,53.058 40.79,53.058 40.79,98.502 	"/>
	<polygon fill="#010101" points="119.056,73.304 139.247,53.059 129.945,53.059 104.109,78.941 104.109,53.059 97.076,53.059 
		97.076,98.503 104.109,98.503 104.109,88.635 104.109,88.296 113.899,78.481 114.036,78.342 130.768,98.503 139.595,98.503 	"/>
	<path fill="#010101" d="M83.022,53.05v7.473c-3.054-4.516-9.062-7.822-15.611-7.822c-12.374,0-22.063,10.135-22.063,23.078
		c0,12.939,9.689,23.08,22.063,23.08c6.549,0,12.557-3.313,15.611-7.828v7.473h7.034V75.778V53.05H83.022z M67.716,92.05
		c-8.613,0-15.361-7.148-15.361-16.271c0-9.125,6.748-16.272,15.361-16.272c8.803,0,15.437,6.992,15.437,16.272
		C83.153,85.057,76.52,92.05,67.716,92.05"/>
</g>
</svg>
